<svg width="266" height="76" viewBox="0 0 266 76" fill="none" xmlns="http://www.w3.org/2000/svg">
<g filter="url(#filter0_d_22_152)">
<path fill-rule="evenodd" clip-rule="evenodd" d="M30.4277 1.13991C31.9476 2.65979 31.9476 5.124 30.4277 6.64388L9.02229 28.0493C7.50241 29.5692 5.0382 29.5692 3.51833 28.0493C1.99845 26.5294 1.99845 24.0652 3.51833 22.5453L24.9237 1.13991C26.4436 -0.37997 28.9078 -0.37997 30.4277 1.13991Z" fill="#20A224"/>
</g>
<g filter="url(#filter1_d_22_152)">
<path fill-rule="evenodd" clip-rule="evenodd" d="M30.4277 22.5453C31.9476 24.0652 31.9476 26.5294 30.4277 28.0493L9.02229 49.4547C7.50241 50.9746 5.0382 50.9746 3.51833 49.4547C1.99845 47.9348 1.99845 45.4706 3.51833 43.9507L24.9237 22.5453C26.4436 21.0254 28.9078 21.0254 30.4277 22.5453Z" fill="#20A224"/>
</g>
<path fill-rule="evenodd" clip-rule="evenodd" d="M30.4277 49.4547C28.9078 50.9746 26.4436 50.9746 24.9238 49.4547L3.51835 28.0493C1.99847 26.5294 1.99847 24.0652 3.51835 22.5453C5.03823 21.0254 7.50244 21.0254 9.02231 22.5453L30.4277 43.9507C31.9476 45.4706 31.9476 47.9348 30.4277 49.4547Z" fill="#18771B"/>
<path fill-rule="evenodd" clip-rule="evenodd" d="M51.8332 28.0493C50.3133 29.5692 47.8491 29.5692 46.3292 28.0493L24.9238 6.64387C23.4039 5.124 23.4039 2.65979 24.9238 1.13991C26.4437 -0.379971 28.9079 -0.379971 30.4278 1.13991L51.8332 22.5453C53.3531 24.0652 53.3531 26.5294 51.8332 28.0493Z" fill="#18771B"/>
<path fill-rule="evenodd" clip-rule="evenodd" d="M51.8332 49.4547C50.3133 50.9746 47.8491 50.9746 46.3292 49.4547L24.9238 28.0493C23.4039 26.5294 23.4039 24.0652 24.9238 22.5453C26.4437 21.0254 28.9079 21.0254 30.4278 22.5453L51.8332 43.9507C53.3531 45.4706 53.3531 47.9348 51.8332 49.4547Z" fill="#18771B"/>
<path fill-rule="evenodd" clip-rule="evenodd" d="M30.4277 70.8601C28.9078 72.38 26.4436 72.38 24.9238 70.8601L3.51835 49.4547C1.99847 47.9348 1.99847 45.4706 3.51835 43.9508C5.03823 42.4309 7.50244 42.4309 9.02231 43.9508L30.4277 65.3562C31.9476 66.876 31.9476 69.3403 30.4277 70.8601Z" fill="#18771B"/>
<g filter="url(#filter2_d_22_152)">
<path fill-rule="evenodd" clip-rule="evenodd" d="M51.8331 43.9508C53.353 45.4706 53.353 47.9348 51.8331 49.4547L30.4277 70.8601C28.9078 72.38 26.4436 72.38 24.9237 70.8601C23.4038 69.3403 23.4038 66.876 24.9237 65.3562L46.3291 43.9508C47.849 42.4309 50.3132 42.4309 51.8331 43.9508Z" fill="#20A224"/>
</g>
<g filter="url(#filter3_d_22_152)">
<path fill-rule="evenodd" clip-rule="evenodd" d="M51.8331 22.5453C53.353 24.0652 53.353 26.5294 51.8331 28.0493L30.4277 49.4547C28.9078 50.9746 26.4436 50.9746 24.9237 49.4547C23.4038 47.9348 23.4038 45.4706 24.9237 43.9507L46.3291 22.5453C47.849 21.0254 50.3132 21.0254 51.8331 22.5453Z" fill="#20A224"/>
</g>
<path d="M251.657 22.5516C254.44 22.5516 256.881 23.0955 258.981 24.1832C261.106 25.271 262.738 26.8268 263.876 28.8506C265.04 30.8491 265.621 33.1764 265.621 35.8327C265.621 38.4889 265.04 40.8162 263.876 42.8147C262.738 44.7879 261.106 46.3184 258.981 47.4062C256.881 48.494 254.44 49.0378 251.657 49.0378H242.399V22.5516H251.657ZM251.468 44.5223C254.25 44.5223 256.401 43.7634 257.918 42.2455C259.436 40.7277 260.195 38.5901 260.195 35.8327C260.195 33.0753 259.436 30.925 257.918 29.3818C256.401 27.8134 254.25 27.0292 251.468 27.0292H247.711V44.5223H251.468Z" fill="#20A224"/>
<path d="M227.895 26.8395V33.48H236.812V37.692H227.895V44.712H237.95V49.0379H222.582V22.5136H237.95V26.8395H227.895Z" fill="#20A224"/>
<path d="M217.733 22.5516V49.0378H212.42V37.7679H201.075V49.0378H195.762V22.5516H201.075V33.4421H212.42V22.5516H217.733Z" fill="#20A224"/>
<path d="M182.163 49.3034C180.317 49.3034 178.647 48.9872 177.154 48.3548C175.687 47.7224 174.523 46.8117 173.663 45.6227C172.803 44.4337 172.361 43.0297 172.335 41.4107H178.027C178.103 42.4985 178.482 43.3586 179.165 43.991C179.874 44.6234 180.835 44.9397 182.049 44.9397C183.289 44.9397 184.263 44.6487 184.971 44.0669C185.68 43.4598 186.034 42.6755 186.034 41.7143C186.034 40.93 185.793 40.285 185.313 39.779C184.832 39.2731 184.225 38.881 183.491 38.6027C182.783 38.2991 181.796 37.9702 180.532 37.6161C178.811 37.1101 177.407 36.6168 176.32 36.1362C175.257 35.6302 174.334 34.884 173.549 33.8974C172.791 32.8855 172.411 31.5447 172.411 29.8751C172.411 28.3067 172.803 26.9406 173.587 25.777C174.372 24.6133 175.472 23.7279 176.889 23.1207C178.305 22.4883 179.924 22.1721 181.746 22.1721C184.478 22.1721 186.691 22.8425 188.386 24.1832C190.107 25.4987 191.055 27.3454 191.232 29.7233H185.389C185.338 28.8126 184.946 28.0664 184.212 27.4845C183.504 26.8774 182.555 26.5738 181.366 26.5738C180.329 26.5738 179.494 26.8394 178.862 27.3707C178.255 27.9019 177.951 28.6735 177.951 29.6854C177.951 30.3937 178.179 30.9882 178.634 31.4688C179.115 31.9242 179.697 32.3037 180.38 32.6072C181.088 32.8855 182.075 33.2144 183.34 33.5938C185.06 34.0998 186.464 34.6057 187.552 35.1117C188.639 35.6176 189.575 36.3765 190.36 37.3884C191.144 38.4003 191.536 39.7284 191.536 41.3727C191.536 42.7894 191.169 44.1048 190.435 45.3191C189.702 46.5334 188.627 47.5073 187.21 48.241C185.793 48.9493 184.111 49.3034 182.163 49.3034Z" fill="#20A224"/>
<path d="M155.457 22.5516C158.24 22.5516 160.681 23.0955 162.78 24.1832C164.905 25.271 166.537 26.8268 167.676 28.8506C168.839 30.8491 169.421 33.1764 169.421 35.8327C169.421 38.4889 168.839 40.8162 167.676 42.8147C166.537 44.7879 164.905 46.3184 162.78 47.4062C160.681 48.494 158.24 49.0378 155.457 49.0378H146.198V22.5516H155.457ZM155.267 44.5223C158.05 44.5223 160.2 43.7634 161.718 42.2455C163.236 40.7277 163.995 38.5901 163.995 35.8327C163.995 33.0753 163.236 30.925 161.718 29.3818C160.2 27.8134 158.05 27.0292 155.267 27.0292H151.511V44.5223H155.267Z" fill="black"/>
<path d="M141.329 22.5516V49.0378H136.017V22.5516H141.329Z" fill="black"/>
<path d="M105.979 35.7568C105.979 33.1511 106.561 30.8238 107.725 28.7747C108.914 26.7003 110.52 25.0939 112.544 23.9556C114.593 22.7919 116.883 22.2101 119.412 22.2101C122.372 22.2101 124.965 22.969 127.191 24.4868C129.417 26.0046 130.973 28.1043 131.859 30.7858H125.749C125.142 29.521 124.282 28.5723 123.169 27.9399C122.081 27.3075 120.816 26.9912 119.374 26.9912C117.831 26.9912 116.452 27.3581 115.238 28.0917C114.049 28.8 113.113 29.8119 112.43 31.1273C111.772 32.4428 111.444 33.9859 111.444 35.7568C111.444 37.5023 111.772 39.0454 112.43 40.3862C113.113 41.7016 114.049 42.7262 115.238 43.4598C116.452 44.1681 117.831 44.5223 119.374 44.5223C120.816 44.5223 122.081 44.2061 123.169 43.5736C124.282 42.9159 125.142 41.9546 125.749 40.6897H131.859C130.973 43.3965 129.417 45.5089 127.191 47.0267C124.99 48.5192 122.397 49.2655 119.412 49.2655C116.883 49.2655 114.593 48.6963 112.544 47.5579C110.52 46.3943 108.914 44.7879 107.725 42.7388C106.561 40.6897 105.979 38.3624 105.979 35.7568Z" fill="black"/>
<path d="M86.4272 22.5516V38.9442C86.4272 40.7403 86.8952 42.119 87.8312 43.0803C88.7672 44.0163 90.0826 44.4843 91.7776 44.4843C93.4978 44.4843 94.8259 44.0163 95.7619 43.0803C96.6979 42.119 97.1659 40.7403 97.1659 38.9442V22.5516H102.516V38.9063C102.516 41.1577 102.023 43.0677 101.036 44.6361C100.075 46.1793 98.7723 47.3429 97.1279 48.1271C95.5089 48.9114 93.7002 49.3035 91.7017 49.3035C89.7285 49.3035 87.9324 48.9114 86.3133 48.1271C84.7196 47.3429 83.4547 46.1793 82.5187 44.6361C81.5827 43.0677 81.1147 41.1577 81.1147 38.9063V22.5516H86.4272Z" fill="black"/>
<path d="M69.4659 44.8258H78.1934V49.0378H64.1534V22.5516H69.4659V44.8258Z" fill="black"/>
<defs>
<filter id="filter0_d_22_152" x="0.79353" y="0" width="32.359" height="32.359" filterUnits="userSpaceOnUse" color-interpolation-filters="sRGB">
<feFlood flood-opacity="0" result="BackgroundImageFix"/>
<feColorMatrix in="SourceAlpha" type="matrix" values="0 0 0 0 0 0 0 0 0 0 0 0 0 0 0 0 0 0 127 0" result="hardAlpha"/>
<feOffset dy="1.58489"/>
<feGaussianBlur stdDeviation="0.792444"/>
<feComposite in2="hardAlpha" operator="out"/>
<feColorMatrix type="matrix" values="0 0 0 0 0 0 0 0 0 0 0 0 0 0 0 0 0 0 0.25 0"/>
<feBlend mode="normal" in2="BackgroundImageFix" result="effect1_dropShadow_22_152"/>
<feBlend mode="normal" in="SourceGraphic" in2="effect1_dropShadow_22_152" result="shape"/>
</filter>
<filter id="filter1_d_22_152" x="0.79353" y="21.4054" width="32.359" height="32.359" filterUnits="userSpaceOnUse" color-interpolation-filters="sRGB">
<feFlood flood-opacity="0" result="BackgroundImageFix"/>
<feColorMatrix in="SourceAlpha" type="matrix" values="0 0 0 0 0 0 0 0 0 0 0 0 0 0 0 0 0 0 127 0" result="hardAlpha"/>
<feOffset dy="1.58489"/>
<feGaussianBlur stdDeviation="0.792444"/>
<feComposite in2="hardAlpha" operator="out"/>
<feColorMatrix type="matrix" values="0 0 0 0 0 0 0 0 0 0 0 0 0 0 0 0 0 0 0.25 0"/>
<feBlend mode="normal" in2="BackgroundImageFix" result="effect1_dropShadow_22_152"/>
<feBlend mode="normal" in="SourceGraphic" in2="effect1_dropShadow_22_152" result="shape"/>
</filter>
<filter id="filter2_d_22_152" x="22.1989" y="42.8109" width="32.359" height="32.359" filterUnits="userSpaceOnUse" color-interpolation-filters="sRGB">
<feFlood flood-opacity="0" result="BackgroundImageFix"/>
<feColorMatrix in="SourceAlpha" type="matrix" values="0 0 0 0 0 0 0 0 0 0 0 0 0 0 0 0 0 0 127 0" result="hardAlpha"/>
<feOffset dy="1.58489"/>
<feGaussianBlur stdDeviation="0.792444"/>
<feComposite in2="hardAlpha" operator="out"/>
<feColorMatrix type="matrix" values="0 0 0 0 0 0 0 0 0 0 0 0 0 0 0 0 0 0 0.25 0"/>
<feBlend mode="normal" in2="BackgroundImageFix" result="effect1_dropShadow_22_152"/>
<feBlend mode="normal" in="SourceGraphic" in2="effect1_dropShadow_22_152" result="shape"/>
</filter>
<filter id="filter3_d_22_152" x="22.1989" y="21.4054" width="32.359" height="32.359" filterUnits="userSpaceOnUse" color-interpolation-filters="sRGB">
<feFlood flood-opacity="0" result="BackgroundImageFix"/>
<feColorMatrix in="SourceAlpha" type="matrix" values="0 0 0 0 0 0 0 0 0 0 0 0 0 0 0 0 0 0 127 0" result="hardAlpha"/>
<feOffset dy="1.58489"/>
<feGaussianBlur stdDeviation="0.792444"/>
<feComposite in2="hardAlpha" operator="out"/>
<feColorMatrix type="matrix" values="0 0 0 0 0 0 0 0 0 0 0 0 0 0 0 0 0 0 0.25 0"/>
<feBlend mode="normal" in2="BackgroundImageFix" result="effect1_dropShadow_22_152"/>
<feBlend mode="normal" in="SourceGraphic" in2="effect1_dropShadow_22_152" result="shape"/>
</filter>
</defs>
</svg>
