<svg width="24" height="24" viewBox="0 0 24 24" fill="none" xmlns="http://www.w3.org/2000/svg">
<path d="M22.0356 19.04L22.0702 19.005L22.0356 18.9699L19.0875 15.9749L19.0519 15.9387L19.0163 15.9749L18.1348 16.8704L18.1003 16.9055L18.1348 16.9405L19.4908 18.3182H17.3477H17.3261L17.3113 18.3338C16.8632 18.8089 16.3697 19.2311 15.8307 19.6005L15.6976 19.6918H15.859H19.4908L18.1348 21.0694L18.1003 21.1045L18.1348 21.1396L19.0163 22.0351L19.0519 22.0713L19.0875 22.0351L22.0356 19.04ZM1.95 19.6418V19.6918H2H10.7757C11.4724 19.6918 12.1431 19.5983 12.7877 19.4112C13.4314 19.2244 14.0358 18.9674 14.601 18.6403C15.1666 18.3129 15.6764 17.9119 16.1302 17.4375C16.5834 16.9638 16.9774 16.4433 17.3124 15.8762C17.6477 15.3084 17.9041 14.6972 18.0816 14.0429C18.2591 13.3884 18.3477 12.7074 18.3477 12C18.3477 11.2925 18.2558 10.6113 18.0716 9.95661C17.8878 9.30285 17.6349 8.68889 17.313 8.11485C16.9907 7.54029 16.5961 7.02245 16.1292 6.56143C15.6628 6.10101 15.1505 5.70062 14.5921 5.36029C14.0331 5.01954 13.4314 4.75903 12.7872 4.57872C12.1428 4.39833 11.4722 4.30821 10.7757 4.30821H10.7753H10.7749H10.7744H10.774H10.7736H10.7732H10.7728H10.7723H10.7719H10.7715H10.7711H10.7707H10.7703H10.7698H10.7694H10.769H10.7686H10.7682H10.7677H10.7673H10.7669H10.7665H10.7661H10.7657H10.7652H10.7648H10.7644H10.764H10.7636H10.7632H10.7627H10.7623H10.7619H10.7615H10.7611H10.7607H10.7602H10.7598H10.7594H10.759H10.7586H10.7582H10.7578H10.7573H10.7569H10.7565H10.7561H10.7557H10.7553H10.7549H10.7544H10.754H10.7536H10.7532H10.7528H10.7524H10.752H10.7516H10.7511H10.7507H10.7503H10.7499H10.7495H10.7491H10.7487H10.7483H10.7478H10.7474H10.747H10.7466H10.7462H10.7458H10.7454H10.745H10.7446H10.7442H10.7437H10.7433H10.7429H10.7425H10.7421H10.7417H10.7413H10.7409H10.7405H10.7401H10.7397H10.7393H10.7388H10.7384H10.738H10.7376H10.7372H10.7368H10.7364H10.736H10.7356H10.7352H10.7348H10.7344H10.734H10.7336H10.7332H10.7327H10.7323H10.7319H10.7315H10.7311H10.7307H10.7303H10.7299H10.7295H10.7291H10.7287H10.7283H10.7279H10.7275H10.7271H10.7267H10.7263H10.7259H10.7255H10.7251H10.7247H10.7243H10.7239H10.7235H10.7231H10.7227H10.7223H10.7219H10.7215H10.7211H10.7207H10.7203H10.7199H10.7195H10.7191H10.7187H10.7183H10.7179H10.7175H10.7171H10.7167H10.7163H10.7159H10.7155H10.7151H10.7147H10.7143H10.7139H10.7135H10.7131H10.7127H10.7123H10.7119H10.7115H10.7111H10.7107H10.7103H10.7099H10.7095H10.7091H10.7087H10.7083H10.7079H10.7075H10.7071H10.7067H10.7063H10.7059H10.7055H10.7051H10.7047H10.7043H10.704H10.7036H10.7032H10.7028H10.7024H10.702H10.7016H10.7012H10.7008H10.7004H10.7H10.6996H10.6992H10.6988H10.6984H10.6981H10.6977H10.6973H10.6969H10.6965H10.6961H10.6957H10.6953H10.6949H10.6945H10.6941H10.6937H10.6934H10.693H10.6926H10.6922H10.6918H10.6914H10.691H10.6906H10.6902H10.6898H10.6895H10.6891H10.6887H10.6883H10.6879H10.6875H10.6871H10.6867H10.6864H10.686H10.6856H10.6852H10.6848H10.6844H10.684H10.6836H10.6833H10.6829H10.6825H10.6821H10.6817H10.6813H10.6809H10.6806H10.6802H10.6798H10.6794H10.679H10.6786H10.6782H10.6779H10.6775H10.6771H10.6767H10.6763H10.6759H10.6756H10.6752H10.6748H10.6744H10.674H10.6736H10.6733H10.6729H10.6725H10.6721H10.6717H10.6713H10.671H10.6706H10.6702H10.6698H10.6694H10.6691H10.6687H10.6683H10.6679H10.6675H10.6671H10.6668H10.6664H10.666H10.6656H10.6652H10.6649H10.6645H10.6641H10.6637H10.6634H10.663H10.6626H10.6622H10.6618H10.6615H10.6611H10.6607H10.6603H10.6599H10.6596H10.6592H10.6588H10.6584H10.6581H10.6577H10.6573H10.6569H10.6566H10.6562H10.6558H10.6554H10.6551H10.6547H10.6543H10.6539H10.6536H10.6532H10.6528H10.6524H10.6521H10.6517H10.6513H10.6509H10.6506H10.6502H10.6498H10.6494H10.6491H10.6487H10.6483H10.6479H10.6476H10.6472H10.6468H10.6465H10.6461H10.6457H10.6453H10.645H10.6446H10.6442H10.6439H10.6435H10.6431H10.6427H10.6424H10.642H10.6416H10.6413H10.6409H10.6405H10.6402H10.6398H10.6394H10.639H10.6387H10.6383H10.6379H10.6376H10.6372H10.6368H10.6365H10.6361H10.6357H10.6354H10.635H10.6346H10.6343H10.6339H10.6335H10.6332H10.6328H10.6324H10.6321H10.6317H10.6313H10.631H10.6306H10.6302H10.6299H10.6295H10.6291H10.6288H10.6284H10.628H10.6277H10.6273H10.6269H10.6266H10.6262H10.6258H10.6255H10.6251H10.6248H10.6244H10.624H10.6237H10.6233H10.6229H10.6226H10.6222H10.6219H10.6215H10.6211H10.6208H10.6204H10.62H10.6197H10.6193H10.619H10.6186H10.6182H10.6179H10.6175H10.6172H10.6168H10.6164H10.6161H10.6157H10.6154H10.615H10.6146H10.6143H10.6139H10.6136H10.6132H10.6129H10.6125H10.6121H10.6118H10.6114H10.6111H10.6107H10.6103H10.61H10.6096H10.6093H10.6089H10.6086H10.6082H10.6078H10.6075H10.6071H10.6068H10.6064H10.6061H10.6057H10.6054H10.605H10.6046H10.6043H10.6039H10.6036H10.6032H10.6029H10.6025H10.6022H10.6018H10.6015H10.6011H10.6008H10.6004H10.6H10.5997H10.5993H10.599H10.5986H10.5983H10.5979H10.5976H10.5972H10.5969H10.5965H10.5962H10.5958H10.5955H10.5951H10.5948H10.5944H10.5941H10.5937H10.5934H10.593H10.5927H10.5923H10.592H10.5916H10.5913H10.5909H10.5906H10.5902H10.5899H10.5895H10.5892H10.5888H10.5885H10.5881H10.5878H10.5874H10.5871H10.5867H10.5864H10.586H10.5857H10.5854H10.585H10.5847H10.5843H10.584H10.5836H10.5833H10.5829H10.5826H10.5822H10.5819H10.5815H10.5812H10.5809H10.5805H10.5802H10.5798C10.5608 4.30821 10.5415 4.30854 10.5219 4.30922L11.8789 2.9306L11.9134 2.89552L11.8789 2.86045L10.9974 1.96492L10.9618 1.92872L10.9262 1.96492L7.97808 4.95995L7.94355 4.99502L7.97808 5.0301L10.9262 8.02513L10.9618 8.06133L10.9974 8.02513L11.8789 7.1296L11.9133 7.09465L11.879 7.05958L10.5419 5.6917C10.5763 5.68506 10.6085 5.68184 10.6386 5.68184H10.7757C11.3458 5.68184 11.8962 5.75752 12.427 5.90878C12.9584 6.06018 13.4538 6.27404 13.9135 6.55032C14.3736 6.82682 14.7948 7.15598 15.1772 7.53787C15.5593 7.91945 15.883 8.34373 16.1485 8.81078C16.4141 9.27802 16.6215 9.78163 16.7706 10.3218C16.9195 10.8612 16.9941 11.4206 16.9941 12C16.9941 12.5794 16.9195 13.1388 16.7706 13.6782C16.6215 14.2182 16.411 14.7216 16.139 15.1888C15.8668 15.6563 15.5427 16.0842 15.1668 16.4727C14.7912 16.8609 14.3736 17.1897 13.914 17.4594C13.4541 17.7291 12.9586 17.9398 12.427 18.0912C11.8962 18.2425 11.3458 18.3182 10.7757 18.3182H2H1.95V18.3682V19.6418ZM5.14566 17.1276L5.16059 17.1445H5.18315H7.05387H7.19943L7.08459 17.0551C6.69553 16.7521 6.34217 16.4128 6.02446 16.0374C5.70711 15.6623 5.44166 15.2578 5.22801 14.8237C5.01414 14.3891 4.84887 13.9348 4.73219 13.4607C4.61565 12.9871 4.55735 12.5002 4.55735 12C4.55735 11.4603 4.62536 10.9339 4.76136 10.4208C4.89749 9.90708 5.08867 9.42323 5.33485 8.9691C5.58098 8.51507 5.88219 8.09386 6.2386 7.70545C6.59484 7.31722 6.99642 6.97833 7.44344 6.68873L7.49491 6.65539L7.45189 6.61169L6.54102 5.68632L6.51139 5.65621L6.47676 5.6804C5.95113 6.04752 5.49087 6.46161 5.0962 6.92271C4.70197 7.38329 4.36035 7.88721 4.07136 8.43436C3.78212 8.98199 3.56516 9.55638 3.42054 10.1575C3.27595 10.7584 3.20367 11.3726 3.20367 12C3.20367 12.9612 3.37124 13.8794 3.70649 14.7542C4.04165 15.6288 4.52144 16.42 5.14566 17.1276Z" fill="#242831" stroke="#242831" stroke-width="0.1"/>
</svg>
