<svg width="24" height="24" viewBox="0 0 24 24" fill="none" xmlns="http://www.w3.org/2000/svg">
<path d="M2.40039 4.19995C2.40039 3.4043 2.71646 2.64124 3.27907 2.07863C3.84168 1.51602 4.60474 1.19995 5.40039 1.19995H16.2004C16.996 1.19995 17.7591 1.51602 18.3217 2.07863C18.8843 2.64124 19.2004 3.4043 19.2004 4.19995V7.19995H18.0004V4.19995C18.0004 3.72256 17.8107 3.26472 17.4732 2.92716C17.1356 2.58959 16.6778 2.39995 16.2004 2.39995H5.40039C4.923 2.39995 4.46516 2.58959 4.1276 2.92716C3.79003 3.26472 3.60039 3.72256 3.60039 4.19995V15C3.60039 15.4773 3.79003 15.9352 4.1276 16.2727C4.46516 16.6103 4.923 16.8 5.40039 16.8H9.60039V18H5.40039C4.60474 18 3.84168 17.6839 3.27907 17.1213C2.71646 16.5587 2.40039 15.7956 2.40039 15V4.19995ZM6.60039 7.19995H13.2004C12.6939 7.19996 12.1931 7.30685 11.7307 7.51363C11.2684 7.72041 10.8549 8.02243 10.5172 8.39995H6.60039C6.44126 8.39995 6.28865 8.33674 6.17613 8.22422C6.06361 8.11169 6.00039 7.95908 6.00039 7.79995C6.00039 7.64082 6.06361 7.48821 6.17613 7.37569C6.28865 7.26317 6.44126 7.19995 6.60039 7.19995ZM9.80439 9.59995H6.60039C6.44126 9.59995 6.28865 9.66317 6.17613 9.77569C6.06361 9.88821 6.00039 10.0408 6.00039 10.2C6.00039 10.3591 6.06361 10.5117 6.17613 10.6242C6.28865 10.7367 6.44126 10.8 6.60039 10.8H9.60039C9.60039 10.38 9.67239 9.97555 9.80439 9.59995ZM6.60039 4.79995C6.44126 4.79995 6.28865 4.86317 6.17613 4.97569C6.06361 5.08821 6.00039 5.24082 6.00039 5.39995C6.00039 5.55908 6.06361 5.71169 6.17613 5.82422C6.28865 5.93674 6.44126 5.99995 6.60039 5.99995H15.0004C15.1595 5.99995 15.3121 5.93674 15.4247 5.82422C15.5372 5.71169 15.6004 5.55908 15.6004 5.39995C15.6004 5.24082 15.5372 5.08821 15.4247 4.97569C15.3121 4.86317 15.1595 4.79995 15.0004 4.79995H6.60039ZM21.6004 10.8C21.6004 10.1634 21.3475 9.55298 20.8974 9.1029C20.4474 8.65281 19.8369 8.39995 19.2004 8.39995H13.2004C12.5639 8.39995 11.9534 8.65281 11.5033 9.1029C11.0532 9.55298 10.8004 10.1634 10.8004 10.8V20.4C10.8004 21.0365 11.0532 21.6469 11.5033 22.097C11.9534 22.5471 12.5639 22.8 13.2004 22.8H21.0004C21.1595 22.8 21.3121 22.7367 21.4247 22.6242C21.5372 22.5117 21.6004 22.3591 21.6004 22.2C21.6004 22.0408 21.5372 21.8882 21.4247 21.7757C21.3121 21.6632 21.1595 21.6 21.0004 21.6H13.2004C12.8821 21.6 12.5769 21.4735 12.3519 21.2485C12.1268 21.0234 12.0004 20.7182 12.0004 20.4V20.3964H21.0004C21.1595 20.3964 21.3121 20.3331 21.4247 20.2206C21.5372 20.1081 21.6004 19.9555 21.6004 19.7964V10.8ZM12.0004 19.1964V10.8C12.0004 10.4817 12.1268 10.1765 12.3519 9.95142C12.5769 9.72638 12.8821 9.59995 13.2004 9.59995H19.2004C19.5187 9.59995 19.8239 9.72638 20.0489 9.95142C20.274 10.1765 20.4004 10.4817 20.4004 10.8V19.1964H12.0004Z" fill="#242831"/>
</svg>
