<svg width="24" height="24" viewBox="0 0 24 24" fill="none" xmlns="http://www.w3.org/2000/svg">
<path d="M18.2246 12.8784H14.6638C14.192 12.8784 13.7393 13.0653 13.4049 13.3981C13.0705 13.731 12.8815 14.1828 12.8793 14.6546V18.2155C12.8793 18.6887 13.0673 19.1427 13.402 19.4773C13.7366 19.812 14.1905 20 14.6638 20H18.2246C18.6963 19.9976 19.1479 19.8085 19.4806 19.4741C19.8133 19.1397 20 18.6872 20 18.2155V14.6546C20 14.1838 19.813 13.7322 19.48 13.3993C19.1471 13.0663 18.6955 12.8793 18.2246 12.8793M8.33616 12.8784H4.77535C4.30357 12.881 3.85203 13.0703 3.51937 13.4049C3.18671 13.7394 2.99999 14.1921 3 14.6638V18.2246C3 18.6955 3.18705 19.1471 3.51999 19.48C3.85293 19.813 4.3045 20 4.77535 20H8.33616C8.80786 20 9.26038 19.8133 9.59478 19.4806C9.92919 19.1479 10.1183 18.6963 10.1207 18.2246V14.6638C10.1207 14.1905 9.93269 13.7366 9.59802 13.402C9.26336 13.0673 8.80945 12.8793 8.33616 12.8793M8.33616 3H4.77535C4.54221 3 4.31135 3.04592 4.09595 3.13514C3.88056 3.22436 3.68485 3.35513 3.51999 3.51999C3.35513 3.68485 3.22436 3.88056 3.13514 4.09595C3.04592 4.31135 3 4.54221 3 4.77535V8.33616C2.99999 8.80786 3.18675 9.26038 3.51943 9.59478C3.85211 9.92919 4.30366 10.1183 4.77535 10.1207H8.33616C8.80945 10.1207 9.26336 9.93269 9.59802 9.59802C9.93269 9.26336 10.1207 8.80945 10.1207 8.33616V4.77535C10.1183 4.30366 9.92919 3.85211 9.59478 3.51943C9.26038 3.18675 8.80786 2.99999 8.33616 3ZM18.2246 3H14.6638C14.1921 2.99999 13.7396 3.18675 13.4052 3.51943C13.0708 3.85211 12.8817 4.30366 12.8793 4.77535V8.33616C12.8795 8.80938 13.0676 9.26314 13.4022 9.59775C13.7369 9.93237 14.1906 10.1205 14.6638 10.1207H18.2246C18.6963 10.1183 19.1479 9.92919 19.4806 9.59478C19.8133 9.26038 20 8.80786 20 8.33616V4.77535C20 4.3045 19.813 3.85293 19.48 3.51999C19.1471 3.18705 18.6955 3 18.2246 3Z" stroke="#242831" stroke-width="1.5" stroke-linecap="round" stroke-linejoin="round"/>
</svg>
